# Made in Blockbench 5.1.3

o CenterBase
v -0.1875 0 0.1875
v -0.1875 0.125 -0.1875
v -0.1875 0 -0.1875
v -0.1875 0.125 0.1875
v 0.1875 0.125 -0.1875
v 0.1875 0.125 0.1875
v 0.1875 0 -0.1875
v 0.1875 0 0.1875
vt 1 0.5
vt 0.5 1
vt 0.5 0.5
vt 1 0.5
vt 0.5 1
vt 0.5 0.5
vt 1 0.5
vt 0.5 1
vt 0.5 0.5
vt 1 0.5
vt 0.5 1
vt 0.5 0.5
vt 1 0.5
vt 0.5 1
vt 0.5 0.5
vt 1 0.5
vt 0.5 1
vt 0.5 0.5
vt 1 0.5
vt 1 1
vt 0.5 1
vt 1 0.5
vt 1 1
vt 0.5 1
vt 1 0.5
vt 1 1
vt 0.5 1
vt 1 0.5
vt 1 1
vt 0.5 1
vt 1 0.5
vt 1 1
vt 0.5 1
vt 1 0.5
vt 1 1
vt 0.5 1
vn -1 0 0
vn 0 1 0
vn 1 0 0
vn 0 -1 0
vn 0 0 -1
vn 0 0 1
vn -1 0 0
vn 0 1 0
vn 1 0 0
vn 0 -1 0
vn 0 0 -1
vn 0 0 1

f 1/1/1 2/2/1 3/3/1
f 4/4/2 5/5/2 2/6/2
f 6/7/3 7/8/3 5/9/3
f 8/10/4 3/11/4 7/12/4
f 5/13/5 3/14/5 2/15/5
f 4/16/6 8/17/6 6/18/6
f 1/19/7 4/20/7 2/21/7
f 4/22/8 6/23/8 5/24/8
f 6/25/9 8/26/9 7/27/9
f 8/28/10 1/29/10 3/30/10
f 5/31/11 7/32/11 3/33/11
f 4/34/12 1/35/12 8/36/12
o Arm_posX_open_base
v 0.1875 0 0.1875
v 0.1875 0.125 -0.1875
v 0.1875 0 -0.1875
v 0.1875 0.125 0.1875
v 0.5 0.125 -0.1875
v 0.5 0.125 0.1875
v 0.5 0 -0.1875
v 0.5 0 0.1875
vt 1 0.5
vt 0.5 1
vt 0.5 0.5
vt 1 0.5
vt 0.5 1
vt 0.5 0.5
vt 1 0.5
vt 0.5 1
vt 0.5 0.5
vt 1 0.5
vt 0.5 1
vt 0.5 0.5
vt 1 0.5
vt 0.5 1
vt 0.5 0.5
vt 1 0.5
vt 0.5 1
vt 0.5 0.5
vt 1 0.5
vt 1 1
vt 0.5 1
vt 1 0.5
vt 1 1
vt 0.5 1
vt 1 0.5
vt 1 1
vt 0.5 1
vt 1 0.5
vt 1 1
vt 0.5 1
vt 1 0.5
vt 1 1
vt 0.5 1
vt 1 0.5
vt 1 1
vt 0.5 1
vn -1 0 0
vn 0 1 0
vn 1 0 0
vn 0 -1 0
vn 0 0 -1
vn 0 0 1
vn -1 0 0
vn 0 1 0
vn 1 0 0
vn 0 -1 0
vn 0 0 -1
vn 0 0 1

f 9/37/13 10/38/13 11/39/13
f 12/40/14 13/41/14 10/42/14
f 14/43/15 15/44/15 13/45/15
f 16/46/16 11/47/16 15/48/16
f 13/49/17 11/50/17 10/51/17
f 12/52/18 16/53/18 14/54/18
f 9/55/19 12/56/19 10/57/19
f 12/58/20 14/59/20 13/60/20
f 14/61/21 16/62/21 15/63/21
f 16/64/22 9/65/22 11/66/22
f 13/67/23 15/68/23 11/69/23
f 12/70/24 9/71/24 16/72/24
o Arm_posX_open_wall1
v 0.12503125000000004 0.125 -0.125
v 0.12503125000000004 0.625 -0.1875
v 0.12503125000000004 0.125 -0.1875
v 0.12503125000000004 0.625 -0.125
v 0.4999687500000001 0.625 -0.1875
v 0.4999687500000001 0.625 -0.125
v 0.4999687500000001 0.125 -0.1875
v 0.4999687500000001 0.125 -0.125
vt 0.75 0
vt 0.5 0.1875
vt 0.5 0
vt 0.375 0.25
vt 0.3125 0.5
vt 0.3125 0.25
vt 0 0.75
vt 0.25 0.5
vt 0.25 0.75
vt 1 0.75
vt 0.75 1
vt 0.75 0.75
vt 0.25 0.75
vt 0.5 0.5
vt 0.5 0.75
vt 0.5 0.1875
vt 0.75 0
vt 0.75 0.1875
vt 0.75 0
vt 0.75 0.1875
vt 0.5 0.1875
vt 0.375 0.25
vt 0.375 0.5
vt 0.3125 0.5
vt 0 0.75
vt 0 0.5
vt 0.25 0.5
vt 1 0.75
vt 1 1
vt 0.75 1
vt 0.25 0.75
vt 0.25 0.5
vt 0.5 0.5
vt 0.5 0.1875
vt 0.5 0
vt 0.75 0
vn -1 0 0
vn 0 1 0
vn 1 0 0
vn 0 -1 0
vn 0 0 -1
vn 0 0 1
vn -1 0 0
vn 0 1 0
vn 1 0 0
vn 0 -1 0
vn 0 0 -1
vn 0 0 1

f 17/73/25 18/74/25 19/75/25
f 20/76/26 21/77/26 18/78/26
f 22/79/27 23/80/27 21/81/27
f 24/82/28 19/83/28 23/84/28
f 21/85/29 19/86/29 18/87/29
f 20/88/30 24/89/30 22/90/30
f 17/91/31 20/92/31 18/93/31
f 20/94/32 22/95/32 21/96/32
f 22/97/33 24/98/33 23/99/33
f 24/100/34 17/101/34 19/102/34
f 21/103/35 23/104/35 19/105/35
f 20/106/36 17/107/36 24/108/36
o Arm_posX_open_wall2
v 0.12503125000000004 0.12503125 0.1875
v 0.12503125000000004 0.62496875 0.125
v 0.12503125000000004 0.12503125 0.125
v 0.12503125000000004 0.62496875 0.1875
v 0.4999687500000001 0.62496875 0.125
v 0.4999687500000001 0.62496875 0.1875
v 0.4999687500000001 0.12503125 0.125
v 0.4999687500000001 0.12503125 0.1875
vt 0.75 0
vt 0.5 0.1875
vt 0.5 0
vt 0 0.3125
vt 0.25 0.375
vt 0 0.375
vt 0 0.75
vt 0.25 0.5
vt 0.25 0.75
vt 1 0.75
vt 0.75 1
vt 0.75 0.75
vt 0.5 0.1875
vt 0.75 0
vt 0.75 0.1875
vt 0.25 0.75
vt 0.5 0.5
vt 0.5 0.75
vt 0.75 0
vt 0.75 0.1875
vt 0.5 0.1875
vt 0 0.3125
vt 0.25 0.3125
vt 0.25 0.375
vt 0 0.75
vt 0 0.5
vt 0.25 0.5
vt 1 0.75
vt 1 1
vt 0.75 1
vt 0.5 0.1875
vt 0.5 0
vt 0.75 0
vt 0.25 0.75
vt 0.25 0.5
vt 0.5 0.5
vn -1 0 0
vn 0 1 0
vn 1 0 0
vn 0 -1 0
vn 0 0 -1
vn 0 0 1
vn -1 0 0
vn 0 1 0
vn 1 0 0
vn 0 -1 0
vn 0 0 -1
vn 0 0 1

f 25/109/37 26/110/37 27/111/37
f 28/112/38 29/113/38 26/114/38
f 30/115/39 31/116/39 29/117/39
f 32/118/40 27/119/40 31/120/40
f 29/121/41 27/122/41 26/123/41
f 28/124/42 32/125/42 30/126/42
f 25/127/43 28/128/43 26/129/43
f 28/130/44 30/131/44 29/132/44
f 30/133/45 32/134/45 31/135/45
f 32/136/46 25/137/46 27/138/46
f 29/139/47 31/140/47 27/141/47
f 28/142/48 25/143/48 32/144/48
o Arm_posX_closed
v 0.4375 0.12506249999999997 0.18746874999999996
v 0.4375 0.6249375 -0.18746874999999996
v 0.4375 0.12506249999999997 -0.18746874999999996
v 0.4375 0.6249375 0.18746874999999996
v 0.5 0.6249375 -0.18746874999999996
v 0.5 0.6249375 0.18746874999999996
v 0.5 0.12506249999999997 -0.18746874999999996
v 0.5 0.12506249999999997 0.18746874999999996
vt 0.75 0
vt 0.5 0.1875
vt 0.5 0
vt 0.5 0.3125
vt 0.25 0.375
vt 0.25 0.3125
vt 0 0.75
vt 0.25 0.5
vt 0.25 0.75
vt 1 0.75
vt 0.75 1
vt 0.75 0.75
vt 0.25 0.75
vt 0.5 0.5
vt 0.5 0.75
vt 0.25 0.75
vt 0.5 0.5
vt 0.5 0.75
vt 0.75 0
vt 0.75 0.1875
vt 0.5 0.1875
vt 0.5 0.3125
vt 0.5 0.375
vt 0.25 0.375
vt 0 0.75
vt 0 0.5
vt 0.25 0.5
vt 1 0.75
vt 1 1
vt 0.75 1
vt 0.25 0.75
vt 0.25 0.5
vt 0.5 0.5
vt 0.25 0.75
vt 0.25 0.5
vt 0.5 0.5
vn -1 0 0
vn 0 1 0
vn 1 0 0
vn 0 -1 0
vn 0 0 -1
vn 0 0 1
vn -1 0 0
vn 0 1 0
vn 1 0 0
vn 0 -1 0
vn 0 0 -1
vn 0 0 1

f 33/145/49 34/146/49 35/147/49
f 36/148/50 37/149/50 34/150/50
f 38/151/51 39/152/51 37/153/51
f 40/154/52 35/155/52 39/156/52
f 37/157/53 35/158/53 34/159/53
f 36/160/54 40/161/54 38/162/54
f 33/163/55 36/164/55 34/165/55
f 36/166/56 38/167/56 37/168/56
f 38/169/57 40/170/57 39/171/57
f 40/172/58 33/173/58 35/174/58
f 37/175/59 39/176/59 35/177/59
f 36/178/60 33/179/60 40/180/60
o Arm_negX_open_base
v -0.5 0 0.1875
v -0.5 0.125 -0.1875
v -0.5 0 -0.1875
v -0.5 0.125 0.1875
v -0.1875 0.125 -0.1875
v -0.1875 0.125 0.1875
v -0.1875 0 -0.1875
v -0.1875 0 0.1875
vt 1 0.5
vt 0.5 1
vt 0.5 0.5
vt 1 0.5
vt 0.5 1
vt 0.5 0.5
vt 1 0.5
vt 0.5 1
vt 0.5 0.5
vt 1 0.5
vt 0.5 1
vt 0.5 0.5
vt 1 0.5
vt 0.5 1
vt 0.5 0.5
vt 1 0.5
vt 0.5 1
vt 0.5 0.5
vt 1 0.5
vt 1 1
vt 0.5 1
vt 1 0.5
vt 1 1
vt 0.5 1
vt 1 0.5
vt 1 1
vt 0.5 1
vt 1 0.5
vt 1 1
vt 0.5 1
vt 1 0.5
vt 1 1
vt 0.5 1
vt 1 0.5
vt 1 1
vt 0.5 1
vn -1 0 0
vn 0 1 0
vn 1 0 0
vn 0 -1 0
vn 0 0 -1
vn 0 0 1
vn -1 0 0
vn 0 1 0
vn 1 0 0
vn 0 -1 0
vn 0 0 -1
vn 0 0 1

f 41/181/61 42/182/61 43/183/61
f 44/184/62 45/185/62 42/186/62
f 46/187/63 47/188/63 45/189/63
f 48/190/64 43/191/64 47/192/64
f 45/193/65 43/194/65 42/195/65
f 44/196/66 48/197/66 46/198/66
f 41/199/67 44/200/67 42/201/67
f 44/202/68 46/203/68 45/204/68
f 46/205/69 48/206/69 47/207/69
f 48/208/70 41/209/70 43/210/70
f 45/211/71 47/212/71 43/213/71
f 44/214/72 41/215/72 48/216/72
o Arm_negX_open_wall2
v -0.49996874999999996 0.125 0.1875
v -0.49996874999999996 0.625 0.125
v -0.49996874999999996 0.125 0.125
v -0.49996874999999996 0.625 0.1875
v -0.12503125000000004 0.625 0.125
v -0.12503125000000004 0.625 0.1875
v -0.12503125000000004 0.125 0.125
v -0.12503125000000004 0.125 0.1875
vt 0.5 0.5
vt 0.25 0.75
vt 0.25 0.5
vt 0.375 0.25
vt 0.3125 0.5
vt 0.3125 0.25
vt 0.5 0.1875
vt 0.75 0
vt 0.75 0.1875
vt 1 0.75
vt 0.75 1
vt 0.75 0.75
vt 0.75 0.1875
vt 1 0
vt 1 0.1875
vt 0.25 0.75
vt 0.5 0.5
vt 0.5 0.75
vt 0.5 0.5
vt 0.5 0.75
vt 0.25 0.75
vt 0.375 0.25
vt 0.375 0.5
vt 0.3125 0.5
vt 0.5 0.1875
vt 0.5 0
vt 0.75 0
vt 1 0.75
vt 1 1
vt 0.75 1
vt 0.75 0.1875
vt 0.75 0
vt 1 0
vt 0.25 0.75
vt 0.25 0.5
vt 0.5 0.5
vn -1 0 0
vn 0 1 0
vn 1 0 0
vn 0 -1 0
vn 0 0 -1
vn 0 0 1
vn -1 0 0
vn 0 1 0
vn 1 0 0
vn 0 -1 0
vn 0 0 -1
vn 0 0 1

f 49/217/73 50/218/73 51/219/73
f 52/220/74 53/221/74 50/222/74
f 54/223/75 55/224/75 53/225/75
f 56/226/76 51/227/76 55/228/76
f 53/229/77 51/230/77 50/231/77
f 52/232/78 56/233/78 54/234/78
f 49/235/79 52/236/79 50/237/79
f 52/238/80 54/239/80 53/240/80
f 54/241/81 56/242/81 55/243/81
f 56/244/82 49/245/82 51/246/82
f 53/247/83 55/248/83 51/249/83
f 52/250/84 49/251/84 56/252/84
o Arm_negX_closed
v -0.5 0.12506249999999997 0.18746874999999996
v -0.5 0.6249375 -0.18746874999999996
v -0.5 0.12506249999999997 -0.18746874999999996
v -0.5 0.6249375 0.18746874999999996
v -0.4375 0.6249375 -0.18746874999999996
v -0.4375 0.6249375 0.18746874999999996
v -0.4375 0.12506249999999997 -0.18746874999999996
v -0.4375 0.12506249999999997 0.18746874999999996
vt 0.5 0.5
vt 0.25 0.75
vt 0.25 0.5
vt 0.25 0.3125
vt 0 0.375
vt 0 0.3125
vt 0.75 0.1875
vt 1 0
vt 1 0.1875
vt 1 0.75
vt 0.75 1
vt 0.75 0.75
vt 0.25 0.75
vt 0.5 0.5
vt 0.5 0.75
vt 0.24999999999999997 0.75
vt 0.5 0.5
vt 0.5 0.75
vt 0.5 0.5
vt 0.5 0.75
vt 0.25 0.75
vt 0.25 0.3125
vt 0.25 0.375
vt 0 0.375
vt 0.75 0.1875
vt 0.75 0
vt 1 0
vt 1 0.75
vt 1 1
vt 0.75 1
vt 0.25 0.75
vt 0.25 0.5
vt 0.5 0.5
vt 0.24999999999999997 0.75
vt 0.25 0.5
vt 0.5 0.5
vn -1 0 0
vn 0 1 0
vn 1 0 0
vn 0 -1 0
vn 0 0 -1
vn 0 0 1
vn -1 0 0
vn 0 1 0
vn 1 0 0
vn 0 -1 0
vn 0 0 -1
vn 0 0 1

f 57/253/85 58/254/85 59/255/85
f 60/256/86 61/257/86 58/258/86
f 62/259/87 63/260/87 61/261/87
f 64/262/88 59/263/88 63/264/88
f 61/265/89 59/266/89 58/267/89
f 60/268/90 64/269/90 62/270/90
f 57/271/91 60/272/91 58/273/91
f 60/274/92 62/275/92 61/276/92
f 62/277/93 64/278/93 63/279/93
f 64/280/94 57/281/94 59/282/94
f 61/283/95 63/284/95 59/285/95
f 60/286/96 57/287/96 64/288/96
o Arm_posZ_open_base
v -0.1875 0 0.5
v -0.1875 0.125 0.1875
v -0.1875 0 0.1875
v -0.1875 0.125 0.5
v 0.1875 0.125 0.1875
v 0.1875 0.125 0.5
v 0.1875 0 0.1875
v 0.1875 0 0.5
vt 1 0.5
vt 0.5 1
vt 0.5 0.5
vt 1 0.5
vt 0.5 1
vt 0.5 0.5
vt 1 0.5
vt 0.5 1
vt 0.5 0.5
vt 1 0.5
vt 0.5 1
vt 0.5 0.5
vt 1 0.5
vt 0.5 1
vt 0.5 0.5
vt 1 0.5
vt 0.5 1
vt 0.5 0.5
vt 1 0.5
vt 1 1
vt 0.5 1
vt 1 0.5
vt 1 1
vt 0.5 1
vt 1 0.5
vt 1 1
vt 0.5 1
vt 1 0.5
vt 1 1
vt 0.5 1
vt 1 0.5
vt 1 1
vt 0.5 1
vt 1 0.5
vt 1 1
vt 0.5 1
vn -1 0 0
vn 0 1 0
vn 1 0 0
vn 0 -1 0
vn 0 0 -1
vn 0 0 1
vn -1 0 0
vn 0 1 0
vn 1 0 0
vn 0 -1 0
vn 0 0 -1
vn 0 0 1

f 65/289/97 66/290/97 67/291/97
f 68/292/98 69/293/98 66/294/98
f 70/295/99 71/296/99 69/297/99
f 72/298/100 67/299/100 71/300/100
f 69/301/101 67/302/101 66/303/101
f 68/304/102 72/305/102 70/306/102
f 65/307/103 68/308/103 66/309/103
f 68/310/104 70/311/104 69/312/104
f 70/313/105 72/314/105 71/315/105
f 72/316/106 65/317/106 67/318/106
f 69/319/107 71/320/107 67/321/107
f 68/322/108 65/323/108 72/324/108
o Arm_posZ_open_wall1
v -0.1875 0.12503125 0.4999687500000001
v -0.1875 0.62496875 0.12503125000000004
v -0.1875 0.12503125 0.12503125000000004
v -0.1875 0.62496875 0.4999687500000001
v -0.125 0.62496875 0.12503125000000004
v -0.125 0.62496875 0.4999687500000001
v -0.125 0.12503125 0.12503125000000004
v -0.125 0.12503125 0.4999687500000001
vt 0.5 0.5
vt 0.25 0.75
vt 0.25 0.5
vt 0.5 0.125
vt 0.25 0.1875
vt 0.25 0.125
vt 0.5 0.1875
vt 0.75 0
vt 0.75 0.1875
vt 1 0.75
vt 0.75 1
vt 0.75 0.75
vt 0.5 0.1875
vt 0.75 0
vt 0.75 0.1875
vt 0.25 0.75
vt 0.5 0.5
vt 0.5 0.75
vt 0.5 0.5
vt 0.5 0.75
vt 0.25 0.75
vt 0.5 0.125
vt 0.5 0.1875
vt 0.25 0.1875
vt 0.5 0.1875
vt 0.5 0
vt 0.75 0
vt 1 0.75
vt 1 1
vt 0.75 1
vt 0.5 0.1875
vt 0.5 0
vt 0.75 0
vt 0.25 0.75
vt 0.25 0.5
vt 0.5 0.5
vn -1 0 0
vn 0 1 0
vn 1 0 0
vn 0 -1 0
vn 0 0 -1
vn 0 0 1
vn -1 0 0
vn 0 1 0
vn 1 0 0
vn 0 -1 0
vn 0 0 -1
vn 0 0 1

f 73/325/109 74/326/109 75/327/109
f 76/328/110 77/329/110 74/330/110
f 78/331/111 79/332/111 77/333/111
f 80/334/112 75/335/112 79/336/112
f 77/337/113 75/338/113 74/339/113
f 76/340/114 80/341/114 78/342/114
f 73/343/115 76/344/115 74/345/115
f 76/346/116 78/347/116 77/348/116
f 78/349/117 80/350/117 79/351/117
f 80/352/118 73/353/118 75/354/118
f 77/355/119 79/356/119 75/357/119
f 76/358/120 73/359/120 80/360/120
o Arm_posZ_open_wall2
v 0.125 0.125 0.4999687500000001
v 0.125 0.625 0.12503125000000004
v 0.125 0.125 0.12503125000000004
v 0.125 0.625 0.4999687500000001
v 0.1875 0.625 0.12503125000000004
v 0.1875 0.625 0.4999687500000001
v 0.1875 0.125 0.12503125000000004
v 0.1875 0.125 0.4999687500000001
vt 1 0
vt 0.75 0.1875
vt 0.75 0
vt 0.5 0.125
vt 0.25 0.1875
vt 0.25 0.125
vt 0 0.75
vt 0.25 0.5
vt 0.25 0.75
vt 1 0.75
vt 0.75 1
vt 0.75 0.75
vt 0.5 0.1875
vt 0.75 0
vt 0.75 0.1875
vt 0.25 0.75
vt 0.5 0.5
vt 0.5 0.75
vt 1 0
vt 1 0.1875
vt 0.75 0.1875
vt 0.5 0.125
vt 0.5 0.1875
vt 0.25 0.1875
vt 0 0.75
vt 0 0.5
vt 0.25 0.5
vt 1 0.75
vt 1 1
vt 0.75 1
vt 0.5 0.1875
vt 0.5 0
vt 0.75 0
vt 0.25 0.75
vt 0.25 0.5
vt 0.5 0.5
vn -1 0 0
vn 0 1 0
vn 1 0 0
vn 0 -1 0
vn 0 0 -1
vn 0 0 1
vn -1 0 0
vn 0 1 0
vn 1 0 0
vn 0 -1 0
vn 0 0 -1
vn 0 0 1

f 81/361/121 82/362/121 83/363/121
f 84/364/122 85/365/122 82/366/122
f 86/367/123 87/368/123 85/369/123
f 88/370/124 83/371/124 87/372/124
f 85/373/125 83/374/125 82/375/125
f 84/376/126 88/377/126 86/378/126
f 81/379/127 84/380/127 82/381/127
f 84/382/128 86/383/128 85/384/128
f 86/385/129 88/386/129 87/387/129
f 88/388/130 81/389/130 83/390/130
f 85/391/131 87/392/131 83/393/131
f 84/394/132 81/395/132 88/396/132
o Arm_posZ_closed
v -0.18746874999999996 0.12506249999999997 0.5
v -0.18746874999999996 0.6249375 0.4375
v -0.18746874999999996 0.12506249999999997 0.4375
v -0.18746874999999996 0.6249375 0.5
v 0.18746874999999996 0.6249375 0.4375
v 0.18746874999999996 0.6249375 0.5
v 0.18746874999999996 0.12506249999999997 0.4375
v 0.18746874999999996 0.12506249999999997 0.5
vt 0.5 0.5
vt 0.25 0.75
vt 0.25 0.5
vt 0.1875 0.25
vt 0.125 0.5
vt 0.125 0.25
vt 0 0.75
vt 0.25 0.5
vt 0.25 0.75
vt 1 0.75
vt 0.75 1
vt 0.75 0.75
vt 0.5 0.1875
vt 0.75 0
vt 0.75 0.1875
vt 0.25 0.75
vt 0.5 0.5
vt 0.5 0.75
vt 0.5 0.5
vt 0.5 0.75
vt 0.25 0.75
vt 0.1875 0.25
vt 0.1875 0.5
vt 0.125 0.5
vt 0 0.75
vt 0 0.5
vt 0.25 0.5
vt 1 0.75
vt 1 1
vt 0.75 1
vt 0.5 0.1875
vt 0.5 0
vt 0.75 0
vt 0.25 0.75
vt 0.25 0.5
vt 0.5 0.5
vn -1 0 0
vn 0 1 0
vn 1 0 0
vn 0 -1 0
vn 0 0 -1
vn 0 0 1
vn -1 0 0
vn 0 1 0
vn 1 0 0
vn 0 -1 0
vn 0 0 -1
vn 0 0 1

f 89/397/133 90/398/133 91/399/133
f 92/400/134 93/401/134 90/402/134
f 94/403/135 95/404/135 93/405/135
f 96/406/136 91/407/136 95/408/136
f 93/409/137 91/410/137 90/411/137
f 92/412/138 96/413/138 94/414/138
f 89/415/139 92/416/139 90/417/139
f 92/418/140 94/419/140 93/420/140
f 94/421/141 96/422/141 95/423/141
f 96/424/142 89/425/142 91/426/142
f 93/427/143 95/428/143 91/429/143
f 92/430/144 89/431/144 96/432/144
o Arm_negZ_open_base
v -0.1875 0 -0.1875
v -0.1875 0.125 -0.5
v -0.1875 0 -0.5
v -0.1875 0.125 -0.1875
v 0.1875 0.125 -0.5
v 0.1875 0.125 -0.1875
v 0.1875 0 -0.5
v 0.1875 0 -0.1875
vt 1 0.5
vt 0.5 1
vt 0.5 0.5
vt 1 0.5
vt 0.5 1
vt 0.5 0.5
vt 1 0.5
vt 0.5 1
vt 0.5 0.5
vt 1 0.5
vt 0.5 1
vt 0.5 0.5
vt 1 0.5
vt 0.5 1
vt 0.5 0.5
vt 1 0.5
vt 0.5 1
vt 0.5 0.5
vt 1 0.5
vt 1 1
vt 0.5 1
vt 1 0.5
vt 1 1
vt 0.5 1
vt 1 0.5
vt 1 1
vt 0.5 1
vt 1 0.5
vt 1 1
vt 0.5 1
vt 1 0.5
vt 1 1
vt 0.5 1
vt 1 0.5
vt 1 1
vt 0.5 1
vn -1 0 0
vn 0 1 0
vn 1 0 0
vn 0 -1 0
vn 0 0 -1
vn 0 0 1
vn -1 0 0
vn 0 1 0
vn 1 0 0
vn 0 -1 0
vn 0 0 -1
vn 0 0 1

f 97/433/145 98/434/145 99/435/145
f 100/436/146 101/437/146 98/438/146
f 102/439/147 103/440/147 101/441/147
f 104/442/148 99/443/148 103/444/148
f 101/445/149 99/446/149 98/447/149
f 100/448/150 104/449/150 102/450/150
f 97/451/151 100/452/151 98/453/151
f 100/454/152 102/455/152 101/456/152
f 102/457/153 104/458/153 103/459/153
f 104/460/154 97/461/154 99/462/154
f 101/463/155 103/464/155 99/465/155
f 100/466/156 97/467/156 104/468/156
o Arm_negZ_open_wall1
v -0.1875 0.125 -0.12503125000000004
v -0.1875 0.625 -0.49996874999999996
v -0.1875 0.125 -0.49996874999999996
v -0.1875 0.625 -0.12503125000000004
v -0.125 0.625 -0.49996874999999996
v -0.125 0.625 -0.12503125000000004
v -0.125 0.125 -0.49996874999999996
v -0.125 0.125 -0.12503125000000004
vt 0.5 0.5
vt 0.25 0.75
vt 0.25 0.5
vt 0.5 0.125
vt 0.25 0.1875
vt 0.25 0.125
vt 0.75 0.1875
vt 1 0
vt 1 0.1875
vt 1 0.75
vt 0.75 1
vt 0.75 0.75
vt 0.25 0.75
vt 0.5 0.5
vt 0.5 0.75
vt 0.5 0.1875
vt 0.75 0
vt 0.75 0.1875
vt 0.5 0.5
vt 0.5 0.75
vt 0.25 0.75
vt 0.5 0.125
vt 0.5 0.1875
vt 0.25 0.1875
vt 0.75 0.1875
vt 0.75 0
vt 1 0
vt 1 0.75
vt 1 1
vt 0.75 1
vt 0.25 0.75
vt 0.25 0.5
vt 0.5 0.5
vt 0.5 0.1875
vt 0.5 0
vt 0.75 0
vn -1 0 0
vn 0 1 0
vn 1 0 0
vn 0 -1 0
vn 0 0 -1
vn 0 0 1
vn -1 0 0
vn 0 1 0
vn 1 0 0
vn 0 -1 0
vn 0 0 -1
vn 0 0 1

f 105/469/157 106/470/157 107/471/157
f 108/472/158 109/473/158 106/474/158
f 110/475/159 111/476/159 109/477/159
f 112/478/160 107/479/160 111/480/160
f 109/481/161 107/482/161 106/483/161
f 108/484/162 112/485/162 110/486/162
f 105/487/163 108/488/163 106/489/163
f 108/490/164 110/491/164 109/492/164
f 110/493/165 112/494/165 111/495/165
f 112/496/166 105/497/166 107/498/166
f 109/499/167 111/500/167 107/501/167
f 108/502/168 105/503/168 112/504/168
o Arm_negZ_open_wall2
v 0.125 0.12503125 -0.12503125000000004
v 0.125 0.62496875 -0.49996874999999996
v 0.125 0.12503125 -0.49996874999999996
v 0.125 0.62496875 -0.12503125000000004
v 0.1875 0.62496875 -0.49996874999999996
v 0.1875 0.62496875 -0.12503125000000004
v 0.1875 0.12503125 -0.49996874999999996
v 0.1875 0.12503125 -0.12503125000000004
vt 0.75 0
vt 0.5 0.1875
vt 0.5 0
vt 0.25 0.125
vt 0 0.1875
vt 0 0.125
vt 0 0.75
vt 0.25 0.5
vt 0.25 0.75
vt 1 0.75
vt 0.75 1
vt 0.75 0.75
vt 0.25 0.75
vt 0.5 0.5
vt 0.5 0.75
vt 0.5008173925219536 0.1885800717069931
vt 0.7491826074780464 0
vt 0.7508079989325663 0.1864128831009665
vt 0.75 0
vt 0.75 0.1875
vt 0.5 0.1875
vt 0.25 0.125
vt 0.25 0.1875
vt 0 0.1875
vt 0 0.75
vt 0 0.5
vt 0.25 0.5
vt 1 0.75
vt 1 1
vt 0.75 1
vt 0.25 0.75
vt 0.25 0.5
vt 0.5 0.5
vt 0.5008173925219536 0.1885800717069931
vt 0.49919200106743367 0.0010871168990335134
vt 0.7491826074780464 0
vn -1 0 0
vn 0 1 0
vn 1 0 0
vn 0 -1 0
vn 0 0 -1
vn 0 0 1
vn -1 0 0
vn 0 1 0
vn 1 0 0
vn 0 -1 0
vn 0 0 -1
vn 0 0 1

f 113/505/169 114/506/169 115/507/169
f 116/508/170 117/509/170 114/510/170
f 118/511/171 119/512/171 117/513/171
f 120/514/172 115/515/172 119/516/172
f 117/517/173 115/518/173 114/519/173
f 116/520/174 120/521/174 118/522/174
f 113/523/175 116/524/175 114/525/175
f 116/526/176 118/527/176 117/528/176
f 118/529/177 120/530/177 119/531/177
f 120/532/178 113/533/178 115/534/178
f 117/535/179 119/536/179 115/537/179
f 116/538/180 113/539/180 120/540/180
o Arm_negZ_closed
v -0.18746874999999996 0.12506249999999997 -0.4375
v -0.18746874999999996 0.6249375 -0.5
v -0.18746874999999996 0.12506249999999997 -0.5
v -0.18746874999999996 0.6249375 -0.4375
v 0.18746874999999996 0.6249375 -0.5
v 0.18746874999999996 0.6249375 -0.4375
v 0.18746874999999996 0.12506249999999997 -0.5
v 0.18746874999999996 0.12506249999999997 -0.4375
vt 0.5 0.5
vt 0.25 0.75
vt 0.25 0.5
vt 0.375 0
vt 0.3125 0.25
vt 0.3125 0
vt 0 0.75
vt 0.25 0.5
vt 0.25 0.75
vt 1 0.75
vt 0.75 1
vt 0.75 0.75
vt 0.25 0.75
vt 0.5 0.5
vt 0.5 0.75
vt 0.75 0.1875
vt 1 0
vt 1 0.1875
vt 0.5 0.5
vt 0.5 0.75
vt 0.25 0.75
vt 0.375 0
vt 0.375 0.25
vt 0.3125 0.25
vt 0 0.75
vt 0 0.5
vt 0.25 0.5
vt 1 0.75
vt 1 1
vt 0.75 1
vt 0.25 0.75
vt 0.25 0.5
vt 0.5 0.5
vt 0.75 0.1875
vt 0.75 0
vt 1 0
vn -1 0 0
vn 0 1 0
vn 1 0 0
vn 0 -1 0
vn 0 0 -1
vn 0 0 1
vn -1 0 0
vn 0 1 0
vn 1 0 0
vn 0 -1 0
vn 0 0 -1
vn 0 0 1

f 121/541/181 122/542/181 123/543/181
f 124/544/182 125/545/182 122/546/182
f 126/547/183 127/548/183 125/549/183
f 128/550/184 123/551/184 127/552/184
f 125/553/185 123/554/185 122/555/185
f 124/556/186 128/557/186 126/558/186
f 121/559/187 124/560/187 122/561/187
f 124/562/188 126/563/188 125/564/188
f 126/565/189 128/566/189 127/567/189
f 128/568/190 121/569/190 123/570/190
f 125/571/191 127/572/191 123/573/191
f 124/574/192 121/575/192 128/576/192
o Arm_negX_open_wall1
v -0.49996874999999996 0.12503125 -0.125
v -0.49996874999999996 0.62496875 -0.1875
v -0.49996874999999996 0.12503125 -0.1875
v -0.49996874999999996 0.62496875 -0.125
v -0.12503125000000004 0.62496875 -0.1875
v -0.12503125000000004 0.62496875 -0.125
v -0.12503125000000004 0.12503125 -0.1875
v -0.12503125000000004 0.12503125 -0.125
vt 0.5 0.5
vt 0.25 0.75
vt 0.25 0.5
vt 0.1875 0.25
vt 0.125 0.5
vt 0.125 0.25
vt 0.75 0.1875
vt 1 0
vt 1 0.1875
vt 1 0.75
vt 0.75 1
vt 0.75 0.75
vt 0.25 0.75
vt 0.5 0.5
vt 0.5 0.75
vt 0.75 0.1875
vt 1 0
vt 1 0.1875
vt 0.5 0.5
vt 0.5 0.75
vt 0.25 0.75
vt 0.1875 0.25
vt 0.1875 0.5
vt 0.125 0.5
vt 0.75 0.1875
vt 0.75 0
vt 1 0
vt 1 0.75
vt 1 1
vt 0.75 1
vt 0.25 0.75
vt 0.25 0.5
vt 0.5 0.5
vt 0.75 0.1875
vt 0.75 0
vt 1 0
vn -1 0 0
vn 0 1 0
vn 1 0 0
vn 0 -1 0
vn 0 0 -1
vn 0 0 1
vn -1 0 0
vn 0 1 0
vn 1 0 0
vn 0 -1 0
vn 0 0 -1
vn 0 0 1

f 129/577/193 130/578/193 131/579/193
f 132/580/194 133/581/194 130/582/194
f 134/583/195 135/584/195 133/585/195
f 136/586/196 131/587/196 135/588/196
f 133/589/197 131/590/197 130/591/197
f 132/592/198 136/593/198 134/594/198
f 129/595/199 132/596/199 130/597/199
f 132/598/200 134/599/200 133/600/200
f 134/601/201 136/602/201 135/603/201
f 136/604/202 129/605/202 131/606/202
f 133/607/203 135/608/203 131/609/203
f 132/610/204 129/611/204 136/612/204