# Made in Blockbench 5.1.3

o FoundryBasin
v -0.5 1 0.5
v -0.5 0 -0.5
v -0.5 0 0.5
v -0.5 1 -0.5
v 0.5 0 -0.5
v 0.5 1 -0.5
v 0.5 0 0.5
v 0.5 1 0.5
v -0.375 1 -0.375
v 0.375 1 0.375
v 0.375 1 -0.375
v -0.375 0.25 0.375
v -0.375 1 0.375
v -0.375 0.25 -0.375
v 0.375 0.25 0.375
v 0.375 0.25 -0.375
vt 1 0.5
vt 0.75 0
vt 1 0
vt 0.75 0.5
vt 0.5 0
vt 0.75 0
vt 1 0.5
vt 0.75 0
vt 1 0
vt 0.75 0.5
vt 0.5 0
vt 0.75 0
vt 1 0.5
vt 0.5 1
vt 0.5 0.5
vt 0.5 0
vt 0.5 0.5
vt 0.4375 0.0625
vt 0.0625 0.4375
vt 0 0
vt 0.0625 0.0625
vt 0.5 0.5
vt 0.25 0.9375
vt 0.5 0.9375
vt 0.25 0.5
vt 0 0.9375
vt 0.25 0.9375
vt 0.5 0.9375
vt 0.25 0.5
vt 0.25 0.9375
vt 0.25 0.9375
vt 0 0.5
vt 0 0.9375
vt 0.5 1
vt 1 0.5
vt 0.5 0.5
vt 1 0.5
vt 0.75 0.5
vt 0.75 0
vt 0.75 0.5
vt 0.5 0.5
vt 0.5 0
vt 1 0.5
vt 0.75 0.5
vt 0.75 0
vt 0.75 0.5
vt 0.5 0.5
vt 0.5 0
vt 1 0.5
vt 1 1
vt 0.5 1
vt 0.4375 0.0625
vt 0.0625 0.0625
vt 0 0
vt 0.5 0.5
vt 0 0.5
vt 0.0625 0.4375
vt 0.5 0.5
vt 0.0625 0.4375
vt 0.4375 0.4375
vt 0.4375 0.0625
vt 0 0
vt 0.5 0
vt 0.5 0.5
vt 0.4375 0.4375
vt 0.4375 0.0625
vt 0.0625 0.4375
vt 0 0.5
vt 0 0
vt 0.5 0.5
vt 0.25 0.5
vt 0.25 0.9375
vt 0.25 0.5
vt 0 0.5
vt 0 0.9375
vt 0.5 0.9375
vt 0.5 0.5
vt 0.25 0.5
vt 0.25 0.9375
vt 0.25 0.5
vt 0 0.5
vt 0.5 1
vt 1 1
vt 1 0.5
vn -1 0 0
vn 0 0 -1
vn 1 0 0
vn 0 0 1
vn 0 -1 0
vn 0 1 0
vn 0 1 0
vn 1 0 0
vn 0 0 1
vn -1 0 0
vn 0 0 -1
vn 0 1 0
vn -1 0 0
vn 0 0 -1
vn 1 0 0
vn 0 0 1
vn 0 -1 0
vn 0 1 0
vn 0 1 0
vn 0 1 0
vn 0 1 0
vn 0 1 0
vn 0 1 0
vn 1 0 0
vn 0 0 1
vn -1 0 0
vn 0 0 -1
vn 0 1 0
usemtl m_706e073a-b0da-f0ed-eac1-d9fc76bea076
f 1/1/1 2/2/1 3/3/1
f 4/4/2 5/5/2 2/6/2
f 6/7/3 7/8/3 5/9/3
f 8/10/4 3/11/4 7/12/4
f 5/13/5 3/14/5 2/15/5
f 4/16/6 1/17/6 9/18/6
f 10/19/7 6/20/7 11/21/7
f 12/22/8 9/23/8 13/24/8
f 14/25/9 11/26/9 9/27/9
f 11/28/10 15/29/10 10/30/10
f 10/31/11 12/32/11 13/33/11
f 12/34/12 16/35/12 14/36/12
f 1/37/13 4/38/13 2/39/13
f 4/40/14 6/41/14 5/42/14
f 6/43/15 8/44/15 7/45/15
f 8/46/16 1/47/16 3/48/16
f 5/49/17 7/50/17 3/51/17
f 9/52/18 11/53/18 6/54/18
f 1/55/19 8/56/19 10/57/19
f 1/58/20 10/59/20 13/60/20
f 9/61/21 6/62/21 4/63/21
f 1/64/22 13/65/22 9/66/22
f 10/67/23 8/68/23 6/69/23
f 12/70/24 14/71/24 9/72/24
f 14/73/25 16/74/25 11/75/25
f 11/76/26 16/77/26 15/78/26
f 10/79/27 15/80/27 12/81/27
f 12/82/28 15/83/28 16/84/28