# Made in Blockbench 5.1.3
o cube
v 4.9375 3 2.9375
v 4.9375 3 -0.0625
v 4.9375 0 2.9375
v 4.9375 0 -0.0625
v -0.0625 3 -0.0625
v -0.0625 3 2.9375
v -0.0625 0 -0.0625
v -0.0625 0 2.9375
vt 0 0.998046875
vt 1 0.998046875
vt 1 0.654296875
vt 0 0.654296875
vt 0 0.654296875
vt 0.328125 0.654296875
vt 0.328125 0.306640625
vt 0 0.306640625
vt 0 0.998046875
vt 1 0.998046875
vt 1 0.654296875
vt 0 0.654296875
vt 0.328125 0.654296875
vt 0.65625 0.654296875
vt 0.65625 0.306640625
vt 0.328125 0.306640625
vt 1 0.654296875
vt 0 0.654296875
vt 0 0.998046875
vt 1 0.998046875
vt 1 0.998046875
vt 0 0.998046875
vt 0 0.654296875
vt 1 0.654296875
vn 0 0 -1
vn 1 0 0
vn 0 0 1
vn -1 0 0
vn 0 1 0
vn 0 -1 0
usemtl m_985ca20c-188f-b2a1-e223-192d06ebc9f4
f 4/4/1 7/3/1 5/2/1 2/1/1
f 3/8/2 4/7/2 2/6/2 1/5/2
f 8/12/3 3/11/3 1/10/3 6/9/3
f 7/16/4 8/15/4 6/14/4 5/13/4
f 6/20/5 1/19/5 2/18/5 5/17/5
f 7/24/6 4/23/6 3/22/6 8/21/6